<?xml version="1.0" encoding="UTF-8"?>
<svg version="1.1" xmlns="http://www.w3.org/2000/svg" width="198" height="217">
<path d="M0 0 C1.11994354 0.00406357 1.11994354 0.00406357 2.26251221 0.00820923 C13.35033728 0.0692325 23.65625026 0.66842115 34.1875 4.4375 C35.25871094 4.81132813 36.32992187 5.18515625 37.43359375 5.5703125 C44.79152618 8.40100752 51.5018246 12.28981364 58.1875 16.4375 C59.20263672 17.06398438 59.20263672 17.06398438 60.23828125 17.703125 C64.03432018 20.13114035 64.03432018 20.13114035 65.1875 22.4375 C66.1775 22.7675 67.1675 23.0975 68.1875 23.4375 C69.6875 24.9609375 69.6875 24.9609375 71.1875 26.8125 C72.69453468 28.65704765 74.14604819 30.39815916 75.875 32.0390625 C77.1875 33.4375 77.1875 33.4375 77.1875 35.4375 C78.1775 35.7675 79.1675 36.0975 80.1875 36.4375 C81.62211103 38.75138875 82.91595031 41.03834965 84.1875 43.4375 C84.8475 44.55125 85.5075 45.665 86.1875 46.8125 C90.64175384 54.70788328 94.46580686 63.29605353 95.1875 72.4375 C93.60525029 74.64118071 92.68266584 75.35321038 89.98910522 75.8117218 C89.13466827 75.81109238 88.28023132 75.81046295 87.39990234 75.80981445 C86.42814056 75.81604324 85.45637878 75.82227203 84.45516968 75.82868958 C83.40519806 75.81947983 82.35522644 75.81027008 81.2734375 75.80078125 C80.18922516 75.80127975 79.10501282 75.80177826 77.98794556 75.80229187 C75.68969902 75.79994923 73.39145002 75.7902096 71.09326172 75.77368164 C67.59709332 75.75023203 64.10169506 75.75310192 60.60546875 75.75976562 C58.36978716 75.75418379 56.13410878 75.74707074 53.8984375 75.73828125 C52.86061127 75.73919266 51.82278503 75.74010406 50.75350952 75.74104309 C41.2063276 75.64918261 33.51990614 74.09113963 25.1875 69.4375 C24.341875 69.025 23.49625 68.6125 22.625 68.1875 C13.50129569 61.63714819 6.54668319 50.33524978 4.1875 39.4375 C3.78736081 34.80667572 3.63913337 30.16978407 3.60253906 25.52270508 C3.58803711 24.63736084 3.57353516 23.7520166 3.55859375 22.83984375 C3.55786865 22.04054443 3.55714355 21.24124512 3.55639648 20.41772461 C3.37379272 19.43751343 3.37379272 19.43751343 3.1875 18.4375 C2.1975 17.7775 1.2075 17.1175 0.1875 16.4375 C0.24550781 17.46746094 0.30351563 18.49742188 0.36328125 19.55859375 C0.9239206 34.0733058 -1.43388237 47.88078811 -10.8125 59.4375 C-11.32554688 60.17355469 -11.83859375 60.90960938 -12.3671875 61.66796875 C-12.84414062 62.25191406 -13.32109375 62.83585937 -13.8125 63.4375 C-14.4725 63.4375 -15.1325 63.4375 -15.8125 63.4375 C-15.8125 64.0975 -15.8125 64.7575 -15.8125 65.4375 C-24.85050138 72.94824651 -34.6151693 75.41939539 -46.1796875 75.75390625 C-46.85927521 75.77468735 -47.53886292 75.79546844 -48.23904419 75.81687927 C-50.38843666 75.8817363 -52.5379407 75.94095941 -54.6875 76 C-56.1536569 76.04324612 -57.61980294 76.08686225 -59.0859375 76.13085938 C-62.66134275 76.23735104 -66.23687037 76.33879409 -69.8125 76.4375 C-69.80583817 77.35712021 -69.79917633 78.27674042 -69.79231262 79.22422791 C-69.7320375 87.9186376 -69.68644246 96.61297644 -69.65706348 105.30754757 C-69.64145136 109.77681884 -69.62029511 114.24591651 -69.58618164 118.71508789 C-69.55342848 123.0333939 -69.53561354 127.3515336 -69.52786827 131.6699543 C-69.52235327 133.31207456 -69.51158418 134.9541864 -69.49530983 136.59623528 C-69.31745117 155.29668134 -69.31745117 155.29668134 -74.35546875 162.70703125 C-79.37518111 167.41673762 -84.23744528 171.11249503 -91.25 171.75 C-93.8125 171.4375 -93.8125 171.4375 -94.8125 170.4375 C-94.92367243 167.66427682 -94.96989709 164.91572737 -94.97363281 162.14160156 C-94.97859772 161.27166565 -94.98356262 160.40172974 -94.98867798 159.50543213 C-95.00334251 156.61298851 -95.01010959 153.72059977 -95.015625 150.828125 C-95.02137403 148.8237101 -95.02713179 146.81929522 -95.03289795 144.81488037 C-95.04342091 140.6047744 -95.04925472 136.39468759 -95.05273438 132.18457031 C-95.05821419 126.78959387 -95.08222584 121.39487045 -95.11070633 115.9999733 C-95.12933304 111.85641746 -95.13453839 107.71292247 -95.13607025 103.56932831 C-95.1390985 101.58061086 -95.14713281 99.59189453 -95.16025543 97.60321808 C-95.17731246 94.81894242 -95.17543621 92.0352833 -95.16894531 89.25097656 C-95.1781601 88.42895752 -95.18737488 87.60693848 -95.1968689 86.76000977 C-95.1630882 82.13370345 -94.71100222 79.26070715 -91.8125 75.4375 C-92.59947266 74.92509766 -92.59947266 74.92509766 -93.40234375 74.40234375 C-94.8125 72.4375 -94.8125 72.4375 -94.44140625 69.06640625 C-94.10847861 67.7052256 -93.75145512 66.34979076 -93.375 65 C-93.18687744 64.28932373 -92.99875488 63.57864746 -92.80493164 62.84643555 C-90.96438356 56.28105239 -88.2067145 50.34795884 -84.8125 44.4375 C-84.29816406 43.50292969 -83.78382812 42.56835938 -83.25390625 41.60546875 C-82.54041016 40.53232422 -82.54041016 40.53232422 -81.8125 39.4375 C-81.1525 39.4375 -80.4925 39.4375 -79.8125 39.4375 C-79.4825 38.1175 -79.1525 36.7975 -78.8125 35.4375 C-78.1525 35.4375 -77.4925 35.4375 -76.8125 35.4375 C-76.71710938 34.84066406 -76.62171875 34.24382813 -76.5234375 33.62890625 C-75.65834345 30.96232515 -74.61664467 30.09900686 -72.4375 28.375 C-70.58627664 26.89008254 -68.84809879 25.47492214 -67.2109375 23.75390625 C-65.8125 22.4375 -65.8125 22.4375 -63.8125 22.4375 C-63.4825 21.4475 -63.1525 20.4575 -62.8125 19.4375 C-61.19488775 18.4542455 -59.57304129 17.47290641 -57.89453125 16.59765625 C-55.66213175 15.40039704 -55.66213175 15.40039704 -53.13671875 13.5625 C-49.17496674 11.02995817 -45.13523904 9.19898501 -40.8125 7.375 C-40.05066406 7.03662109 -39.28882813 6.69824219 -38.50390625 6.34960938 C-25.96525052 1.02737209 -13.43012142 -0.11445384 0 0 Z " fill="#6A469C" transform="translate(94.8125,-0.4375)"/>
<path d="M0 0 C0.07466101 4.69560343 0.12884101 9.39085443 0.16479492 14.08691406 C0.17979745 15.68137641 0.20020621 17.27579808 0.22631836 18.87011719 C0.26308134 21.17393077 0.27981155 23.4771946 0.29296875 25.78125 C0.30845261 26.48366821 0.32393646 27.18608643 0.33988953 27.90979004 C0.34203494 34.3490726 -1.12975048 39.77591949 -5.3125 44.75 C-10.88949803 49.41911463 -15.71048068 52.21733582 -23 53 C-25.64797871 50.35202129 -24.32172135 41.66518919 -24.35009766 37.94750977 C-24.36653256 36.37346483 -24.39365471 34.79949056 -24.43212891 33.22583008 C-24.68344054 22.88818067 -24.60581535 14.17817381 -17.25683594 6.07885742 C-12.25099396 1.23553306 -6.87152127 -0.11726146 0 0 Z " fill="#FCAE3F" transform="translate(112,97)"/>
<path d="M0 0 C3.8123497 1.37244589 5.11628511 3.09876886 7.5546875 6.2265625 C9.13454293 8.13653698 10.77216102 9.62040447 12.6875 11.1875 C15.93157312 13.86243749 18.43803007 16.88685675 21.125 20.125 C22.19601578 20.95366915 23.27961157 21.76632694 24.375 22.5625 C27.125 25.125 27.125 25.125 28.4375 28.4375 C28.09854157 32.4372095 27.77459411 32.93339733 25.20703125 35.734375 C24.56950928 36.43216064 23.9319873 37.12994629 23.27514648 37.84887695 C22.56559814 38.59999756 21.8560498 39.35111816 21.125 40.125 C19.99783569 41.31838989 19.99783569 41.31838989 18.84790039 42.53588867 C16.42163988 45.06836167 13.96542852 47.56817974 11.5 50.0625 C10.66726562 50.92423828 9.83453125 51.78597656 8.9765625 52.67382812 C8.16703125 53.49173828 7.3575 54.30964844 6.5234375 55.15234375 C5.79817871 55.89218506 5.07291992 56.63202637 4.32568359 57.39428711 C1.84218515 59.34741785 0.26359083 59.92645717 -2.875 60.125 C-5.25 58.5 -5.25 58.5 -6.875 56.125 C-6.66058265 51.37548154 -4.49317997 49.27328345 -1.18359375 46.04296875 C-0.48654076 45.35440544 -0.48654076 45.35440544 0.22459412 44.65193176 C1.70306683 43.19575265 3.19486157 41.75414096 4.6875 40.3125 C5.69557507 39.32449902 6.7027473 38.33557596 7.70898438 37.34570312 C10.17062454 34.92803607 12.64440673 32.52323416 15.125 30.125 C14.63 29.67125 14.135 29.2175 13.625 28.75 C12.125 27.125 12.125 27.125 12.125 25.125 C10.805 24.465 9.485 23.805 8.125 23.125 C8.125 22.465 8.125 21.805 8.125 21.125 C6.805 20.465 5.485 19.805 4.125 19.125 C4.125 18.465 4.125 17.805 4.125 17.125 C2.805 16.465 1.485 15.805 0.125 15.125 C0.125 14.465 0.125 13.805 0.125 13.125 C-1.195 12.465 -2.515 11.805 -3.875 11.125 C-3.875 10.465 -3.875 9.805 -3.875 9.125 C-4.535 9.125 -5.195 9.125 -5.875 9.125 C-6.205 7.145 -6.535 5.165 -6.875 3.125 C-4.51809203 0.85874233 -3.31053831 0.14393645 0 0 Z " fill="#6D489C" transform="translate(50.875,89.875)"/>
<path d="M0 0 C0.9375 2.5 0.9375 2.5 1 6 C-0.83581859 9.09794388 -3.45432509 11.47796913 -6 14 C-7.1960206 15.20763245 -8.39127006 16.41602889 -9.5859375 17.625 C-13.03674186 21.10438882 -16.51318982 24.5567145 -20 28 C-18.92151387 31.23545839 -18.31920277 31.7850639 -15.75 33.8125 C-12.38682281 36.58096903 -9.79160281 39.65007663 -7 43 C-5.76247879 44.01540202 -4.51192097 45.01508607 -3.25 46 C-0.72267898 48.1125528 -0.02853968 48.92489558 1.1875 52.125 C1 55 1 55 -0.6875 57.4375 C-3 59 -3 59 -4.9375 59 C-7.66577012 57.67720237 -9.76870544 56.04535334 -12 54 C-12 53.34 -12 52.68 -12 52 C-13.32 51.34 -14.64 50.68 -16 50 C-16 49.34 -16 48.68 -16 48 C-17.32 47.34 -18.64 46.68 -20 46 C-20 45.34 -20 44.68 -20 44 C-20.99 43.67 -21.98 43.34 -23 43 C-24.5 41.4765625 -24.5 41.4765625 -26 39.625 C-27.48949404 37.80192136 -28.92269304 36.07323817 -30.6328125 34.453125 C-32.80872574 32.14044007 -32.87566646 30.10833852 -33 27 C-30.96166441 22.91151727 -28.20999414 19.9525341 -25 16.734375 C-24.52304688 16.25550842 -24.04609375 15.77664185 -23.5546875 15.28326416 C-22.55193477 14.27915791 -21.54668185 13.27754284 -20.5390625 12.27832031 C-18.99761372 10.74763037 -17.46718696 9.20649685 -15.9375 7.6640625 C-14.95897436 6.68685768 -13.97982893 5.71027302 -13 4.734375 C-12.113125 3.84975586 -11.22625 2.96513672 -10.3125 2.05371094 C-6.67521835 -1.17652695 -4.5303972 -1.10198851 0 0 Z " fill="#6A459B" transform="translate(155,91)"/>
<path d="M0 0 C0 1.32 0 2.64 0 4 C-1.35544922 4.05607422 -1.35544922 4.05607422 -2.73828125 4.11328125 C-3.91777344 4.17902344 -5.09726563 4.24476563 -6.3125 4.3125 C-7.48425781 4.37050781 -8.65601563 4.42851562 -9.86328125 4.48828125 C-13.25757195 5.04201983 -13.98873745 5.34406393 -16 8 C-16.41121443 10.12173585 -16.41121443 10.12173585 -16.29296875 12.44921875 C-16.28330078 13.29677734 -16.27363281 14.14433594 -16.26367188 15.01757812 C-16.23853516 15.89865234 -16.21339844 16.77972656 -16.1875 17.6875 C-16.17396484 18.58017578 -16.16042969 19.47285156 -16.14648438 20.39257812 C-16.11114643 22.59530983 -16.05733969 24.7977312 -16 27 C-12.04 27 -8.08 27 -4 27 C-4 24.69 -4 22.38 -4 20 C-6.31 19.67 -8.62 19.34 -11 19 C-11 17.68 -11 16.36 -11 15 C-7.04 15 -3.08 15 1 15 C1 20.94 1 26.88 1 33 C-0.65 32.67 -2.3 32.34 -4 32 C-5.485 32.495 -5.485 32.495 -7 33 C-8.47586615 33.11687338 -9.95706612 33.17501742 -11.4375 33.1875 C-12.58025391 33.20876953 -12.58025391 33.20876953 -13.74609375 33.23046875 C-16.28453293 32.97090564 -17.85388906 32.36826287 -20 31 C-23.51112515 23.79295364 -23.76778523 14.61181864 -21.734375 6.9453125 C-20.65485454 4.0857317 -19.18294354 2.11679373 -17 0 C-11.41615387 -1.86128204 -5.68852856 -1.13770571 0 0 Z " fill="#6B499F" transform="translate(155,184)"/>
<path d="M0 0 C1.32 0.33 2.64 0.66 4 1 C3.21537692 5.84419464 0.11924039 9.2627948 -2.69921875 13.1484375 C-4.31574401 15.9598846 -4.31574401 15.9598846 -3.40234375 19.05859375 C-2.08208789 21.82782123 -0.66893614 24.20458839 1.125 26.6875 C4 30.66985646 4 30.66985646 4 34 C0.63792154 33.70966507 -0.68668062 33.33816676 -3.01953125 30.8203125 C-3.61121094 29.93085938 -4.20289063 29.04140625 -4.8125 28.125 C-5.71935547 26.79855469 -5.71935547 26.79855469 -6.64453125 25.4453125 C-8 23 -8 23 -8 20 C-9.65 20 -11.3 20 -13 20 C-13 24.29 -13 28.58 -13 33 C-15.475 33.495 -15.475 33.495 -18 34 C-19 33 -19 33 -19.11352539 30.04077148 C-19.10828857 28.74727783 -19.10305176 27.45378418 -19.09765625 26.12109375 C-19.0962413 25.4344313 -19.09482635 24.74776886 -19.09336853 24.04029846 C-19.08775479 21.83932199 -19.07520007 19.63844591 -19.0625 17.4375 C-19.05748676 15.94856917 -19.05292355 14.45963676 -19.04882812 12.97070312 C-19.03778093 9.31376925 -19.02050713 5.65689442 -19 2 C-17.34385343 1.61781233 -15.67542976 1.28604898 -14 1 C-13 2 -13 2 -12.90234375 5.16015625 C-12.91394531 6.44792969 -12.92554688 7.73570312 -12.9375 9.0625 C-12.94652344 10.35285156 -12.95554687 11.64320313 -12.96484375 12.97265625 C-12.97644531 13.97167969 -12.98804688 14.97070312 -13 16 C-9.18335857 14.53269509 -7.89872837 12.64998112 -5.9375 9.125 C-4.12593897 5.90551487 -2.28052938 2.90987429 0 0 Z " fill="#684499" transform="translate(19,183)"/>
<path d="M0 0 C1.98 0.495 1.98 0.495 4 1 C4 5.95 4 10.9 4 16 C8.62 16 13.24 16 18 16 C18 11.05 18 6.1 18 1 C18.99 0.67 19.98 0.34 21 0 C21.66 0.33 22.32 0.66 23 1 C23 11.89 23 22.78 23 34 C21.35 33.67 19.7 33.34 18 33 C18 28.71 18 24.42 18 20 C13.38 20 8.76 20 4 20 C4 24.29 4 28.58 4 33 C1.525 33.495 1.525 33.495 -1 34 C-1.02465288 29.31860746 -1.04283739 24.63725241 -1.05493164 19.95581055 C-1.05997157 18.36205386 -1.0668035 16.76830181 -1.07543945 15.17456055 C-1.08751999 12.88849747 -1.09323155 10.60249533 -1.09765625 8.31640625 C-1.10281754 7.59973282 -1.10797882 6.88305939 -1.11329651 6.14466858 C-1.11349263 4.42936328 -1.06192007 2.71418734 -1 1 C-0.67 0.67 -0.34 0.34 0 0 Z " fill="#7250A1" transform="translate(163,183)"/>
<path d="M0 0 C2.00390625 0.84375 2.00390625 0.84375 3.1640625 2.8125 C3.46183594 3.6478125 3.75960937 4.483125 4.06640625 5.34375 C4.39769531 6.25253906 4.72898437 7.16132813 5.0703125 8.09765625 C5.37839844 9.00386719 5.68648437 9.91007813 6.00390625 10.84375 C6.26042969 11.59527344 6.51695313 12.34679687 6.78125 13.12109375 C7.2656377 14.56902022 7.74212955 16.01961062 8.2109375 17.47265625 C9.44857853 21.17338584 10.84728652 24.81398578 12.234375 28.4609375 C13.00390625 30.84375 13.00390625 30.84375 13.00390625 33.84375 C11.35390625 33.84375 9.70390625 33.84375 8.00390625 33.84375 C6.68390625 30.87375 5.36390625 27.90375 4.00390625 24.84375 C0.70390625 24.84375 -2.59609375 24.84375 -5.99609375 24.84375 C-7.97609375 29.29875 -7.97609375 29.29875 -9.99609375 33.84375 C-11.31609375 33.84375 -12.63609375 33.84375 -13.99609375 33.84375 C-14.79070316 26.49361292 -11.27797608 19.817717 -8.43359375 13.21875 C-6.95626937 9.75024928 -5.82437084 6.2713403 -4.7421875 2.6640625 C-3.6924636 0.10295602 -2.710193 -0.21214818 0 0 Z M-1.99609375 6.84375 C-2.20105469 7.53082031 -2.40601562 8.21789062 -2.6171875 8.92578125 C-2.88660156 9.82683594 -3.15601562 10.72789062 -3.43359375 11.65625 C-3.70042969 12.54957031 -3.96726562 13.44289062 -4.2421875 14.36328125 C-4.79997248 16.19848055 -5.3895395 18.02408726 -5.99609375 19.84375 C-3.02609375 19.84375 -0.05609375 19.84375 3.00390625 19.84375 C2.73578125 18.44125 2.46765625 17.03875 2.19140625 15.59375 C2.04058594 14.80484375 1.88976562 14.0159375 1.734375 13.203125 C0.92370644 10.58470891 -0.24731272 8.93270488 -1.99609375 6.84375 Z " fill="#6E4B9D" transform="translate(68.99609375,183.15625)"/>
<path d="M0 0 C1.0528418 0.07831055 1.0528418 0.07831055 2.12695312 0.15820312 C3.85588054 0.28757865 5.58425355 0.42432531 7.3125 0.5625 C7.3125 1.8825 7.3125 3.2025 7.3125 4.5625 C6.31347656 4.62308594 5.31445312 4.68367187 4.28515625 4.74609375 C2.99480469 4.82988281 1.70445313 4.91367188 0.375 5 C-0.91277344 5.08121094 -2.20054688 5.16242188 -3.52734375 5.24609375 C-6.54773957 5.21169188 -6.54773957 5.21169188 -7.6875 6.5625 C-7.75898199 7.91493917 -7.77149454 9.27084367 -7.75 10.625 C-7.729375 11.924375 -7.70875 13.22375 -7.6875 14.5625 C-3.3975 14.8925 0.8925 15.2225 5.3125 15.5625 C5.3125 16.8825 5.3125 18.2025 5.3125 19.5625 C0.6925 19.5625 -3.9275 19.5625 -8.6875 19.5625 C-8.3575 22.2025 -8.0275 24.8425 -7.6875 27.5625 C-2.7375 27.8925 2.2125 28.2225 7.3125 28.5625 C6.9825 30.2125 6.6525 31.8625 6.3125 33.5625 C3.72853321 33.64362454 1.14712432 33.70304748 -1.4375 33.75 C-2.16710937 33.77513672 -2.89671875 33.80027344 -3.6484375 33.82617188 C-6.71474937 33.86798522 -9.14194665 33.84301353 -11.8996582 32.42504883 C-14.41894506 29.80049066 -14.18967153 28.0646803 -14.18359375 24.46875 C-14.18423828 23.27378906 -14.18488281 22.07882813 -14.18554688 20.84765625 C-14.16556641 19.59855469 -14.14558594 18.34945312 -14.125 17.0625 C-14.13208984 15.81339844 -14.13917969 14.56429687 -14.14648438 13.27734375 C-14.08212113 4.09815485 -14.08212113 4.09815485 -12.34790039 1.74414062 C-8.42194841 -1.04980256 -4.53284204 -0.36821406 0 0 Z " fill="#6E4C9F" transform="translate(121.6875,183.4375)"/>
<path d="M0 0 C0.99 0.33 1.98 0.66 3 1 C3 5.95 3 10.9 3 16 C7.95 16 12.9 16 18 16 C18 11.05 18 6.1 18 1 C18.99 0.67 19.98 0.34 21 0 C21.66 0.33 22.32 0.66 23 1 C23 11.89 23 22.78 23 34 C21.35 33.67 19.7 33.34 18 33 C18 28.71 18 24.42 18 20 C13.05 20 8.1 20 3 20 C3 24.62 3 29.24 3 34 C1.68 34 0.36 34 -1 34 C-1.02465288 29.31860746 -1.04283739 24.63725241 -1.05493164 19.95581055 C-1.05997157 18.36205386 -1.0668035 16.76830181 -1.07543945 15.17456055 C-1.08751999 12.88849747 -1.09323155 10.60249533 -1.09765625 8.31640625 C-1.10281754 7.59973282 -1.10797882 6.88305939 -1.11329651 6.14466858 C-1.11349263 4.42936328 -1.06192007 2.71418734 -1 1 C-0.67 0.67 -0.34 0.34 0 0 Z " fill="#8465AB" transform="translate(28,183)"/>
<path d="M0 0 C0.99 0.33 1.98 0.66 3 1 C3.33 9.91 3.66 18.82 4 28 C10.93 28.495 10.93 28.495 18 29 C18 30.65 18 32.3 18 34 C15.39521117 34.0809313 12.79293347 34.14045434 10.1875 34.1875 C9.44951172 34.21263672 8.71152344 34.23777344 7.95117188 34.26367188 C2.47511476 34.33800749 2.47511476 34.33800749 0.05078125 32.61328125 C-2.19600089 29.16376071 -2.11618714 26.79354488 -2.09765625 22.6796875 C-2.09443359 21.42285156 -2.09121094 20.16601562 -2.08789062 18.87109375 C-2.07951172 17.55238281 -2.07113281 16.23367187 -2.0625 14.875 C-2.05748489 13.53515789 -2.05292201 12.195314 -2.04882812 10.85546875 C-2.03701086 7.57026794 -2.02053617 4.28515603 -2 1 C-1.34 0.67 -0.68 0.34 0 0 Z " fill="#6F4C9F" transform="translate(87,183)"/>
<path d="M0 0 C0.99 0.33 1.98 0.66 3 1 C3 11.56 3 22.12 3 33 C1.02 33.495 1.02 33.495 -1 34 C-2 33 -2 33 -2.11352539 29.94897461 C-2.11336634 28.60008729 -2.10767612 27.25119386 -2.09765625 25.90234375 C-2.0962413 25.19348526 -2.09482635 24.48462677 -2.09336853 23.75428772 C-2.08775443 21.48198288 -2.07519963 19.20977525 -2.0625 16.9375 C-2.05748681 15.40039204 -2.05292359 13.86328255 -2.04882812 12.32617188 C-2.03778042 8.55074358 -2.02050641 4.77538829 -2 1 C-1.34 0.67 -0.68 0.34 0 0 Z " fill="#6F4C9F" transform="translate(193,183)"/>
<path d="M0 0 C1.98 0.495 1.98 0.495 4 1 C4 11.89 4 22.78 4 34 C2.35 33.67 0.7 33.34 -1 33 C-1.02691685 30.54159395 -1.04679802 28.08348118 -1.0625 25.625 C-1.07087891 24.92632812 -1.07925781 24.22765625 -1.08789062 23.5078125 C-1.11328125 18.2265625 -1.11328125 18.2265625 0 16 C-0.11510483 13.4648161 -0.27953379 10.96347988 -0.5 8.4375 C-0.71554245 5.95417584 -0.88233464 3.49156395 -1 1 C-0.67 0.67 -0.34 0.34 0 0 Z M1 3 C1 7.29 1 11.58 1 16 C1.33 16 1.66 16 2 16 C2 11.71 2 7.42 2 3 C1.67 3 1.34 3 1 3 Z " fill="#7452A0" transform="translate(47,183)"/>
<path d="M0 0 C0.99 0.33 1.98 0.66 3 1 C3 6.28 3 11.56 3 17 C7.95 17 12.9 17 18 17 C18 17.33 18 17.66 18 18 C12.72 18.33 7.44 18.66 2 19 C2 23.62 2 28.24 2 33 C1.34 33 0.68 33 0 33 C-0.16725986 28.46122739 -0.32785453 23.92228756 -0.48217773 19.38305664 C-0.5356662 17.8377441 -0.59100068 16.29249433 -0.64819336 14.74731445 C-0.72991433 12.53089949 -0.8050717 10.31434616 -0.87890625 8.09765625 C-0.90594131 7.4028566 -0.93297638 6.70805695 -0.96083069 5.99220276 C-1.01301108 4.32890224 -1.01185107 2.66407661 -1 1 C-0.67 0.67 -0.34 0.34 0 0 Z " fill="#6C489C" transform="translate(28,183)"/>
<path d="M0 0 C0.99 0.33 1.98 0.66 3 1 C3 11.56 3 22.12 3 33 C2.34 33 1.68 33 1 33 C0.67 22.11 0.34 11.22 0 0 Z " fill="#7656A7" transform="translate(193,183)"/>
<path d="M0 0 C0.66 0 1.32 0 2 0 C0.43717018 3.76603869 -1.9063475 6.13639151 -4.7890625 8.984375 C-5.25234955 9.44483215 -5.7156366 9.90528931 -6.19296265 10.37969971 C-7.66565898 11.84125078 -9.14517403 13.29567168 -10.625 14.75 C-11.62806322 15.74302611 -12.63067257 16.73651089 -13.6328125 17.73046875 C-16.08330835 20.15897941 -18.5399667 22.58114675 -21 25 C-21.66 24.67 -22.32 24.34 -23 24 C-22.04882866 22.8274869 -21.08882991 21.66212985 -20.125 20.5 C-19.59132812 19.8503125 -19.05765625 19.200625 -18.5078125 18.53125 C-18.01023437 18.0259375 -17.51265625 17.520625 -17 17 C-16.34 17 -15.68 17 -15 17 C-15 16.34 -15 15.68 -15 15 C-14.34 15 -13.68 15 -13 15 C-13 14.34 -13 13.68 -13 13 C-11.6796875 11.73828125 -11.6796875 11.73828125 -9.875 10.3125 C-6.56872653 7.59639299 -3.90985088 4.67219481 -1.26171875 1.3203125 C-0.63716797 0.66675781 -0.63716797 0.66675781 0 0 Z " fill="#653E94" transform="translate(76,122)"/>
<path d="M0 0 C0.99 0.33 1.98 0.66 3 1 C2.34 1 1.68 1 1 1 C1 1.66 1 2.32 1 3 C-0.609375 4.55078125 -0.609375 4.55078125 -2.75 6.3125 C-5.10060645 8.30558414 -7.06918358 10.08647948 -9 12.5 C-11.41049971 15.51312464 -14.16187842 17.860941 -17.09765625 20.3515625 C-18.81221871 21.83728192 -20.41884241 23.37451089 -22 25 C-22 22 -22 22 -19.98046875 19.63989258 C-19.05878906 18.73392334 -18.13710937 17.8279541 -17.1875 16.89453125 C-16.69918701 16.4104631 -16.21087402 15.92639496 -15.70776367 15.42765808 C-14.14540174 13.8820986 -12.57293673 12.34728893 -11 10.8125 C-9.93942238 9.76696718 -8.87951771 8.72075127 -7.8203125 7.67382812 C-5.22130566 5.10791098 -2.6131361 2.55153533 0 0 Z " fill="#603B91" transform="translate(146,92)"/>
<path d="M0 0 C0.598125 0.20625 1.19625 0.4125 1.8125 0.625 C1.8125 2.275 1.8125 3.925 1.8125 5.625 C0.4925 5.295 -0.8275 4.965 -2.1875 4.625 C-2.290625 5.24375 -2.39375 5.8625 -2.5 6.5 C-3.1875 8.625 -3.1875 8.625 -6.1875 10.625 C-6.10041331 9.16554712 -5.99223093 7.70734132 -5.875 6.25 C-5.81699219 5.43789062 -5.75898437 4.62578125 -5.69921875 3.7890625 C-4.93042906 0.53784505 -3.29834961 -0.56543136 0 0 Z " fill="#6442A0" transform="translate(69.1875,183.375)"/>
<path d="M0 0 C3.16854747 0.57691478 4.78226459 1.41646887 7.015625 3.72265625 C7.54414063 4.26083984 8.07265625 4.79902344 8.6171875 5.35351562 C9.15601563 5.91748047 9.69484375 6.48144531 10.25 7.0625 C10.80429688 7.63033203 11.35859375 8.19816406 11.9296875 8.78320312 C13.29334214 10.18212469 14.64760417 11.59019114 16 13 C15.01 13.495 15.01 13.495 14 14 C12 12.625 12 12.625 10 11 C10 10.34 10 9.68 10 9 C8.68 8.34 7.36 7.68 6 7 C6 6.34 6 5.68 6 5 C4.68 4.34 3.36 3.68 2 3 C2 2.34 2 1.68 2 1 C1.34 0.67 0.68 0.34 0 0 Z " fill="#5E3C9C" transform="translate(133,134)"/>
<path d="M0 0 C0.66 0 1.32 0 2 0 C2.05407567 2.58361518 2.093707 5.16609255 2.125 7.75 C2.14175781 8.47960937 2.15851562 9.20921875 2.17578125 9.9609375 C2.21177936 13.92072996 1.93153875 16.5646681 0 20 C-0.19594676 16.85463232 -0.3803401 13.70869386 -0.5625 10.5625 C-0.61857422 9.66466797 -0.67464844 8.76683594 -0.73242188 7.84179688 C-0.78076172 6.98779297 -0.82910156 6.13378906 -0.87890625 5.25390625 C-0.9260376 4.46314697 -0.97316895 3.6723877 -1.02172852 2.85766602 C-1 1 -1 1 0 0 Z " fill="#613D9D" transform="translate(28,183)"/>
<path d="M0 0 C0.33 0 0.66 0 1 0 C1.33 5.61 1.66 11.22 2 17 C0.68 16.67 -0.64 16.34 -2 16 C-2.05384521 13.70858714 -2.09272087 11.41681812 -2.125 9.125 C-2.14820313 7.84882813 -2.17140625 6.57265625 -2.1953125 5.2578125 C-2 2 -2 2 0 0 Z " fill="#674199" transform="translate(48,199)"/>
<path d="M0 0 C0.556875 0.144375 1.11375 0.28875 1.6875 0.4375 C4.11384195 1.02769128 6.54906345 1.523429 9 2 C9 2.66 9 3.32 9 4 C6.03 4 3.06 4 0 4 C0 2.68 0 1.36 0 0 Z " fill="#6E499C" transform="translate(144,199)"/>
<path d="M0 0 C2.31 0 4.62 0 7 0 C7.33 0.99 7.66 1.98 8 3 C5.36 3 2.72 3 0 3 C0 2.01 0 1.02 0 0 Z " fill="#654192" transform="translate(119,200)"/>
<path d="M0 0 C0.66 0 1.32 0 2 0 C1.67 5.28 1.34 10.56 1 16 C0.67 16 0.34 16 0 16 C-0.19389096 13.5211787 -0.38040123 11.04219069 -0.5625 8.5625 C-0.61857422 7.85544922 -0.67464844 7.14839844 -0.73242188 6.41992188 C-0.86190993 4.61572163 -0.93521608 2.80768048 -1 1 C-0.67 0.67 -0.34 0.34 0 0 Z " fill="#5A37A1" transform="translate(47,183)"/>
</svg>
